<?xml version="1.0" encoding="utf-8"?>
<!-- Generator: Adobe Illustrator 23.0.6, SVG Export Plug-In . SVG Version: 6.00 Build 0)  -->
<svg version="1.1" id="Layer_1" xmlns="http://www.w3.org/2000/svg" xmlns:xlink="http://www.w3.org/1999/xlink" x="0px" y="0px"
	 viewBox="0 0 419 130" style="enable-background:new 0 0 419 130;" xml:space="preserve">
<style type="text/css">
	.st0{fill:#EA6D07;}
</style>
<g>
	<path d="M21.8,86.5c-0.8-0.7-1.1-1.5-1.1-2.3c0-4.9,0-9.1,0.1-12.5s0.1-6.3,0.2-8.5c0.1-2.3,0.2-4,0.4-5.3c0.1-1.3,0.3-2.2,0.5-2.8
		c0.2-0.6,0.4-1,0.6-1.1c0.2-0.1,0.4-0.2,0.7-0.2c0.8,0,1.3,0.2,1.8,0.6c0.4,0.4,0.8,0.8,1,1.4c0.2,0.6,0.4,1.3,0.4,2
		c0.1,0.8,0.1,1.5,0.1,2.3v1.2c0,0.7,0,1.6,0,2.8c0,1.1,0,2.3,0,3.9c-0.1,1.6-0.1,3.5-0.1,5.8c1.3-3.6,2.7-6.6,3.9-9.1
		c1.3-2.4,2.5-4.4,3.7-5.8c1.1-1.5,2.3-2.5,3.3-3.1c1.1-0.6,2-0.9,2.8-0.9c0.9,0,1.7,0.2,2.3,0.7c0.6,0.5,1.1,1.1,1.6,1.8
		c0.4,0.8,0.8,1.6,1,2.5c0.2,0.9,0.3,1.9,0.4,2.8c0,0.3-0.1,0.7-0.3,1.2c-0.2,0.6-0.8,0.8-1.8,0.8c-1.1,0-1.9-0.4-2.5-1.2
		s-0.8-1.5-0.8-2.3c0-0.7-0.3-1.1-0.8-1.1s-1.3,0.4-2.3,1.3c-1.1,0.9-2.1,2.4-3.3,4.4s-2.5,4.5-3.8,7.5c-1.3,3-2.5,6.7-3.7,10.9
		c-0.1,1.3-0.3,2.1-0.6,2.6c-0.4,0.5-0.9,0.8-1.4,0.8C23.3,87.6,22.5,87.3,21.8,86.5z"/>
	<path d="M53.6,85.5c-0.9-0.4-1.8-0.9-2.5-1.7s-1.4-1.9-1.9-3.2c-0.5-1.3-0.8-3-0.8-5.1c0-2.4,0.1-4.7,0.4-6.9
		c0.3-2.2,0.6-4.1,1-5.8c0.4-2,0.9-3.8,1.4-5.6c0.1-0.4,0.4-0.7,0.7-0.9c0.3-0.2,0.6-0.3,1-0.3c0.6,0,1.2,0.2,1.8,0.7
		c0.6,0.5,0.8,1.1,0.9,1.9c0,1.3-0.1,2.5-0.3,3.8c-0.2,1.3-0.4,2.7-0.6,4.3s-0.4,3.2-0.6,5.1c-0.2,1.9-0.3,4-0.3,6.4
		c0,0.9,0.1,1.7,0.5,2.4c0.3,0.7,0.6,1.3,1,1.9c0.4,0.6,0.6,1.1,1,1.5c0.3,0.5,0.4,0.8,0.4,1.2s-0.1,0.6-0.5,0.8
		C55.4,86.1,54.5,85.9,53.6,85.5z M52,50.1c-0.5-0.2-0.8-0.5-1.1-0.8c-0.3-0.4-0.5-0.6-0.6-1C50.1,48,50,47.7,50,47.5
		c0-1.1,0.2-2,0.7-2.5s1-0.7,1.6-0.7c0.8,0,1.5,0.4,2.2,1c0.6,0.7,0.8,1.6,0.9,2.7c0,0.1,0,0.4,0,0.6c-0.1,0.3-0.1,0.6-0.3,0.8
		c-0.1,0.3-0.4,0.5-0.6,0.7c-0.3,0.2-0.6,0.3-1.1,0.3C52.9,50.5,52.4,50.4,52,50.1z"/>
	<path d="M67.2,84.9c-1.4-0.8-2.6-2-3.6-3.5c-1.1-1.5-1.8-3.2-2.4-5.2c-0.6-2-0.9-4.2-0.9-6.6c0-2.3,0.3-4.4,0.8-6.4
		c0.5-2,1.3-3.8,2.3-5.4c1-1.5,2.2-2.7,3.6-3.6c1.3-0.9,2.9-1.3,4.6-1.3s3.2,0.4,4.3,1.1c1.1,0.7,2,1.5,2.7,2.3
		c0.6,0.9,1.1,1.7,1.4,2.5c0.2,0.8,0.4,1.3,0.4,1.4c0,0.3-0.1,0.6-0.3,0.8c-0.2,0.4-0.4,0.5-0.6,0.5c-0.3-0.5-0.6-1.1-1.1-1.8
		c-0.5-0.6-1-1.2-1.5-1.8c-0.6-0.6-1.3-1.1-2-1.5c-0.7-0.4-1.4-0.6-2.1-0.6c-1.3,0-2.3,0.6-3.2,1.7c-0.9,1.2-1.7,2.5-2.3,4.2
		c-0.6,1.6-1,3.3-1.3,5c-0.3,1.8-0.4,3.2-0.4,4.2c0,1.6,0.2,3.1,0.6,4.6c0.4,1.5,0.8,2.7,1.4,3.8c0.6,1.1,1.3,1.9,2.3,2.5
		c0.8,0.6,1.8,1,2.8,1c1,0,2-0.4,3.1-1c1.1-0.6,2.2-1.6,3.4-3c0.2-0.2,0.4-0.4,0.7-0.4c0.4,0,0.8,0.1,1.1,0.4c0.4,0.4,0.5,0.6,0.5,1
		c0,0.1-0.3,0.6-0.8,1.2s-1.2,1.3-2.1,2.1c-0.9,0.8-2,1.4-3.2,2c-1.2,0.6-2.5,0.9-3.9,0.9C70,86.1,68.5,85.7,67.2,84.9z"/>
	<path d="M88.1,86.1c-0.5-0.2-0.9-0.7-1.3-1.3c-0.1-0.1-0.1-0.1-0.2-0.4c-0.1-0.2-0.3-0.8-0.4-1.9c-0.1-1.1-0.3-2.8-0.4-5.2
		c-0.1-2.3-0.2-5.7-0.2-10.1c0-2.3,0.1-4.9,0.2-7.7c0.1-2.7,0.3-5.6,0.5-8.5c0.2-2.9,0.4-5.6,0.8-8.4c0.4-2.7,0.7-5.1,1.1-7.2
		c0.4-2.1,0.8-3.8,1.3-5.1c0.5-1.3,1.1-1.9,1.7-1.9c0.1,0,0.2,0,0.4,0.1s0.4,0.2,0.6,0.4s0.4,0.6,0.6,1.1c0.1,0.5,0.2,1.3,0.2,2.2
		c0,0.6-0.1,2.1-0.3,4.4c-0.2,2.3-0.5,5.1-0.8,8.4c-0.3,3.3-0.5,7-0.7,11.2C91.2,60.4,91,64.7,91,69l0.1,4.5
		c1.1-4.2,2.3-7.6,3.6-10.4c1.3-2.8,2.6-5.1,4-6.8c1.3-1.7,2.7-2.9,4-3.7s2.5-1.1,3.7-1.1c1.3,0,2.4,0.4,3.2,1.3
		c0.8,0.9,1.2,2,1.2,3.5c0,0.8-0.3,1.9-0.8,3.4c-0.5,1.5-1.3,3.2-2.5,4.9c-1.2,1.8-2.7,3.5-4.6,5.1c-1.9,1.6-4.3,3-7.1,3.9
		c2.6,2.6,4.7,4.5,6.2,5.8c1.5,1.3,2.7,2.3,3.5,2.9c0.8,0.6,1.3,1.1,1.5,1.3c0.2,0.3,0.3,0.6,0.3,1.1c0,0.2-0.1,0.5-0.3,0.8
		c-0.2,0.4-0.6,0.6-1.3,0.6c-0.5,0-1.2-0.4-2.3-1.2c-1.1-0.8-2.3-1.7-3.5-2.8c-1.3-1.1-2.5-2.4-3.7-3.7c-1.3-1.3-2.3-2.5-3.1-3.7
		c-0.4,1.3-0.7,2.6-1,3.9c-0.3,1.3-0.5,2.4-0.6,3.2c0.1,0.9,0.1,1.4,0.1,1.6c0,0.2,0,0.4,0,0.6c0,0.1,0,0.2,0,0.4
		c-0.1,0.3-0.1,0.6-0.3,0.8c-0.1,0.3-0.4,0.5-0.6,0.7c-0.3,0.2-0.6,0.4-1.1,0.4S88.6,86.4,88.1,86.1z M100,67
		c1.5-1.4,2.9-2.8,3.9-4.3s1.8-2.8,2.3-4.2c0.5-1.3,0.8-2.3,0.8-2.9c0-1-0.4-1.5-1.1-1.5c-0.6,0-1.4,0.4-2.3,1c-0.9,0.6-1.9,1.6-3,3
		c-1.1,1.3-2.2,3-3.2,5.1c-1.1,2-2.1,4.4-3,7.2C96.6,69.5,98.4,68.4,100,67z"/>
</g>
<path class="st0" d="M167.2,116.1h29.3h9.2c14.6,0,26.4-11.8,26.4-26.4v-6.6V39V12.5h-26.4l0.2,26.2v13v21.7v3.2c0,7.2-5.8,13-13,13
	h-4.5h-21.2V116.1z M167.2,89.8v26.2h30.3 M167.2,89.8v26.2h29.3 M154.9,89.8v-13V57.6v-5.8c0-7.2,5.8-13,13-13h1.4h23.9V12.5h-35.2
	h-2.9c-14.6,0-26.4,11.8-26.4,26.4v11.7v38.9v26.4h26.4L154.9,89.8z"/>
<g>
	<path d="M245.6,119.7c-0.6-0.1-1.3-0.1-2-0.4s-1.3-0.5-1.8-0.8c-0.6-0.4-0.8-0.8-0.8-1.4c0-0.4,0.1-0.7,0.4-0.9
		c0.2-0.2,0.4-0.3,0.7-0.3c0.6,0.1,1.3,0.1,1.8,0.2c0.5,0.1,1,0.1,1.6,0.1c2.6,0,4.8-0.8,6.6-2.3c1.7-1.5,3.1-3.6,4.2-6.2
		c1.1-2.6,1.8-5.7,2.3-9.2s0.9-7.3,1.2-11.3c0.2-4,0.4-8.2,0.6-12.7c0.1-4.4,0.4-8.7,0.6-13c0.1-0.2,0.1-0.6,0.1-1
		c0.1-0.4,0.1-0.8,0.3-1.2c0.1-0.4,0.4-0.7,0.6-1s0.7-0.4,1.2-0.4c0.6,0,1.1,0.2,1.5,0.6c0.4,0.4,0.6,0.8,0.8,1.4
		c0.2,0.6,0.3,1.2,0.4,1.8c0.1,0.6,0.1,1.3,0.1,1.8v6.2c0,3.4-0.1,7-0.1,10.8c-0.1,3.8-0.4,7.5-0.7,11.2c-0.4,3.7-1,7.3-1.8,10.6
		s-1.9,6.3-3.2,8.9c-1.4,2.6-3.2,4.6-5.2,6.1c-2,1.5-4.6,2.3-7.5,2.3C246.7,119.8,246.2,119.8,245.6,119.7z M260.7,54.2
		c-0.6-0.8-0.9-1.6-0.9-2.4c0-0.5,0.1-1,0.4-1.3c0.2-0.4,0.6-0.5,1.3-0.5c0.5,0,1,0.1,1.5,0.3c0.6,0.4,1.2,0.8,1.6,1.3
		c0.4,0.6,0.6,1.2,0.6,1.8c0,0.9-0.5,1.5-1.4,1.8l-0.8,0.1C262.1,55.4,261.3,55,260.7,54.2z"/>
	<path d="M286.2,86c-0.4-0.4-0.8-0.7-1-1.2c-0.3-0.4-0.5-0.8-0.6-1.3c-0.1-0.4-0.2-0.6-0.2-0.6c-1.6,2.2-3.5,3.3-5.7,3.3
		c-1.6,0-3.1-0.8-4.4-2.4c-1.3-1.5-2-3.9-2-7.2c0-1.1,0.1-2.3,0.4-3.8c0.2-1.4,0.6-2.7,1.1-4.1c0.5-1.3,1.3-2.4,2.2-3.3
		c0.9-0.9,2.2-1.3,3.7-1.3c1.2,0,2.3,0.4,3.4,1.2c1.1,0.8,1.9,1.8,2.6,2.7c0.2-0.9,0.4-1.8,0.5-2.8c0.1-1,0.1-2,0.1-2.9
		c0-1-0.1-1.9-0.2-2.8c-0.1-0.8-0.4-1.6-0.7-2.3c-0.4-0.6-0.8-1.2-1.4-1.6c-0.6-0.4-1.3-0.6-2.1-0.6c-1.8,0.1-3.2,0.7-4.2,1.9
		c-1,1.2-1.8,2.5-2.3,3.9c-0.5,1.5-0.9,2.7-1.1,3.9c-0.3,1.2-0.7,1.8-1.2,1.8c-0.4,0-0.7-0.1-1.1-0.5c-0.4-0.3-0.6-0.6-0.6-1
		c0-2.2,0.4-4.1,1-5.8c0.6-1.6,1.4-3,2.5-4.2c1.1-1.1,2.2-2,3.5-2.6c1.3-0.6,2.6-0.8,3.9-0.8c1.2,0,2.4,0.2,3.5,0.7
		c1.1,0.5,2,1.2,3,2.2c0.8,1,1.5,2.3,2,3.7s0.8,3.2,0.8,5.3c0,1.5-0.1,3-0.4,4.4c-0.2,1.4-0.5,2.8-0.8,4.2c-0.4,1.3-0.6,2.7-0.8,4
		s-0.4,2.7-0.4,4c0,1.5,0.1,2.5,0.4,3c0.2,0.6,0.4,1.1,0.4,1.5c0,0.6-0.2,1-0.6,1.3c-0.5,0.4-1,0.6-1.5,0.6
		C287.2,86.6,286.7,86.4,286.2,86z M281.5,81.7c0.7-0.9,1.5-2.5,2.5-4.8c0.1-0.9,0.2-1.8,0.4-2.7c0.1-0.9,0.3-1.8,0.5-2.7
		c-0.6-1.3-1.3-2.3-1.8-3c-0.6-0.6-1.1-0.8-1.6-0.8c-0.6,0-1.1,0.4-1.5,1c-0.5,0.6-0.8,1.5-1.1,2.5c-0.4,1.1-0.6,2.2-0.7,3.4
		c-0.2,1.2-0.3,2.4-0.3,3.5c0,1.5,0.1,2.7,0.4,3.7c0.2,1,0.6,1.5,1.3,1.5C280.1,83.1,280.7,82.6,281.5,81.7z"/>
	<path d="M309.3,88.1c-0.5-1.1-0.8-2.5-0.8-4.2c0-1.8,0.2-3.7,0.6-5.8c0.4-2,0.8-4,1.3-5.9c0.5-1.8,0.9-3.5,1.3-4.8
		c0.4-1.3,0.6-2.2,0.7-2.5c0.3-1.4,0.4-2.6,0.4-3.5c0-1.5-0.4-2.3-1.1-2.3c-0.6,0-1.3,0.5-2,1.5c-0.8,1-1.7,2.4-2.6,4.3
		c-0.9,1.9-1.8,4.2-2.7,7c-0.9,2.7-1.7,5.9-2.4,9.5c-0.1,0.8-0.1,1.5-0.1,2.2c0,0.6-0.1,1.2-0.1,1.6c-0.1,0.5-0.4,0.8-0.6,1.1
		c-0.3,0.3-0.8,0.4-1.4,0.4c-0.8,0-1.5-0.3-2-0.8c-0.6-0.5-1-1.1-1.1-1.6c-0.1-0.1-0.1-0.4-0.1-0.8s0-0.8,0-1.3
		c0-1.6,0.1-3.6,0.1-6.2c0.1-2.5,0.3-5.1,0.5-7.7c0.2-2.5,0.4-4.9,0.7-6.9c0.3-2,0.6-3.2,0.9-3.7c0.3-0.3,0.6-0.4,1-0.4
		c1.1,0,1.8,0.6,2.2,1.8c0.4,1.2,0.5,2.7,0.5,4.7c0,0.9,0,1.9-0.1,3c-0.1,1.1-0.1,2.2-0.1,3.4c0.4-1.3,1-2.7,1.7-4.4
		c0.7-1.6,1.5-3.2,2.5-4.7c0.9-1.5,1.9-2.7,3-3.7c1.1-1.1,2.2-1.5,3.4-1.5c0.1,0,0.5,0.1,1.1,0.1c0.6,0.1,1.2,0.4,1.8,0.9
		c0.6,0.5,1.2,1.2,1.7,2.1c0.5,0.9,0.8,2.3,0.8,3.9c0,1.8-0.3,3.7-0.8,5.6c-0.5,1.9-1.1,3.9-1.7,6.1c-0.6,2.1-1.2,4.4-1.7,6.7
		c-0.5,2.3-0.8,4.9-0.8,7.6c0,0.4-0.1,0.7-0.4,0.9c-0.3,0.2-0.6,0.3-0.9,0.3C310.7,89.8,309.8,89.2,309.3,88.1z"/>
	<path d="M340.1,86.1c-0.5-0.4-0.8-1-1.1-1.6c-0.3-0.6-0.5-1.3-0.6-2.2c-0.1-0.8-0.1-1.5-0.1-2.3v-0.6c-1.2,2.3-2.5,4-3.9,5.2
		c-1.4,1.3-2.9,1.9-4.4,1.9c-0.9,0-1.8-0.2-2.7-0.7c-1-0.5-1.9-1.2-2.7-2.2c-0.8-0.9-1.5-2.2-2-3.7s-0.8-3.2-0.8-5.1
		c0-0.4,0.1-1.1,0.1-2.1c0.1-1,0.2-2.1,0.4-3.5c0.1-1.3,0.4-2.6,0.6-4c0.3-1.4,0.6-2.7,1-3.9s0.7-2.1,1.2-2.9
		c0.4-0.8,0.9-1.1,1.5-1.1c0.1,0,0.3,0,0.5,0.1c0.2,0.1,0.5,0.2,0.8,0.4c0.2,0.2,0.5,0.6,0.7,0.9c0.2,0.4,0.3,1,0.3,1.7
		c0,0.5-0.1,1.3-0.3,2.5c-0.2,1.2-0.5,2.5-0.8,3.9c-0.3,1.5-0.5,3.1-0.7,4.7c-0.2,1.6-0.4,3.2-0.4,4.6c0,2.7,0.2,4.5,0.7,5.4
		s1,1.3,1.5,1.3c0.6,0,1.1-0.2,1.6-0.6c0.5-0.4,0.8-0.6,1-0.7c1-0.9,1.9-2.1,2.7-3.5c0.8-1.3,1.6-2.7,2.4-4.2c0.7-1.4,1.3-2.8,2-4.2
		c0.6-1.4,1.1-2.6,1.5-3.7c0.2-1,0.4-1.9,0.6-2.8c0.1-0.8,0.4-1.6,0.6-2.3c0.2-0.6,0.5-1.2,0.8-1.5c0.4-0.4,0.8-0.6,1.3-0.6
		c0.6,0,1.3,0.3,2,0.8c0.6,0.6,1,1.5,1,2.7c0,0.6-0.1,1.5-0.4,3c-0.4,1.5-0.6,3.1-1,4.9c-0.4,1.8-0.7,3.7-1,5.6
		c-0.4,1.9-0.5,3.6-0.5,5.1c0,0.5,0,0.9,0.1,1.3c0,0.5,0,0.9,0.1,1.3c0.1,0.4,0.1,0.8,0.1,1.2c0,0.9-0.3,1.4-0.8,1.6
		c-0.6,0.2-1,0.4-1.3,0.4C341.1,86.7,340.6,86.5,340.1,86.1z"/>
	<path d="M355.3,87c-1.1-0.3-2-0.7-2.7-1.3c-0.8-0.5-1.6-1.1-2.3-1.8c-0.7-0.7-1.4-1.4-2-2.2c-0.3-0.3-0.4-0.6-0.4-1.1
		c0-0.8,0.4-1.1,1.1-1.1c0.2,0,0.6,0.2,1.2,0.6c0.6,0.4,1.3,0.8,2,1.3s1.7,1,2.7,1.4c1,0.4,2,0.6,3.2,0.6c0.9,0,1.8-0.1,2.7-0.4
		c2.7-1.3,4.1-3.2,4.1-5.7c0-0.9-0.2-1.9-0.7-3c-0.5-1-1.2-2-2.2-2.9c-1.8-1.6-3.2-3-4.6-4.1s-2.5-2-3.4-2.9
		c-0.9-0.9-1.6-1.8-2.1-2.7c-0.5-0.9-0.7-2-0.7-3.3c0-1,0.2-2,0.6-2.9c0.4-0.9,0.8-1.7,1.5-2.5c0.6-0.8,1.5-1.3,2.4-1.8
		c0.9-0.4,2-0.6,3.2-0.6c0.8,0,1.5,0.1,2.2,0.4c0.6,0.2,1.1,0.5,1.6,0.8c0.4,0.4,0.6,0.7,0.8,1.1c0.2,0.4,0.3,0.7,0.3,0.9
		c0,0.4-0.1,0.7-0.4,1.1c-0.3,0.4-0.8,0.6-1.4,0.6c-1.8,0-3.1,0.4-3.9,1.1c-0.8,0.8-1.3,1.7-1.3,2.9c0,1,0.4,2.1,1,3.3
		c0.6,1.2,1.5,2.5,2.8,3.7c0.9,0.8,1.8,1.7,2.9,2.5c1,0.9,1.9,1.8,2.7,2.8c0.8,1.1,1.5,2.1,2.1,3.2c0.6,1.2,0.8,2.5,0.8,3.8
		c0,1.5-0.4,2.9-1,3.9c-0.6,1.1-1.5,2-2.5,2.7c-1,0.7-2,1.2-3.2,1.5c-1.2,0.4-2.4,0.5-3.5,0.5C357.6,87.5,356.4,87.3,355.3,87z"/>
	<path d="M371.3,86c-0.8-0.6-1.1-1.3-1.1-2.3c0-0.4,0.6-1.5,1.8-3.3c1.2-1.8,2.6-3.8,4.4-6.1c1.8-2.3,3.6-4.8,5.6-7.3
		s3.7-4.8,5.4-6.8l-9.4,0.2c-0.4,0-0.8,0-1.3-0.1c-0.6,0-1.1-0.1-1.5-0.2c-0.5-0.1-0.9-0.3-1.3-0.5s-0.6-0.4-0.6-0.8
		s0.3-0.6,0.9-0.8c0.6-0.2,1.5-0.4,2.8-0.4c1.3-0.1,3-0.2,5.2-0.3c2.2-0.1,4.8-0.2,8-0.3c0.2-0.1,0.5-0.2,0.7-0.3s0.5-0.1,0.7-0.1
		c0.1,0,0.4,0,0.6,0.1c0.3,0.1,0.6,0.2,0.9,0.4s0.6,0.4,0.8,0.8c0.2,0.4,0.4,0.8,0.4,1.4c0,0.7-0.3,1.5-0.8,2.3
		c-0.6,0.8-1.5,2.1-2.9,3.7c-1.3,1.7-3.1,3.9-5.2,6.6s-4.7,6.3-7.8,10.8c0.5-0.1,1.4-0.1,2.9-0.1s3-0.1,4.6-0.1
		c1.9,0,3.7,0.1,5.3,0.1c1.6,0.1,2.7,0.4,3.2,0.8c0.6,0.5,0.8,1,0.8,1.6c0,0.4-0.1,0.7-0.4,1c-0.4,0.4-0.8,0.5-1.3,0.5
		c-0.1,0-0.5,0-1.1-0.1c-0.6-0.1-1.4-0.1-2.4-0.2c-1.1-0.1-2.2-0.1-3.5-0.1s-2.7-0.1-4.2-0.1c-2,0-4.2,0.1-6.3,0.2
		c-0.4,0.4-0.8,0.6-1.5,0.6C372.7,86.8,372,86.5,371.3,86z"/>
</g>
</svg>
